<?xml version="1.0" encoding="UTF-8"?>
<!DOCTYPE svg PUBLIC "-//W3C//DTD SVG 1.1//EN" "http://www.w3.org/Graphics/SVG/1.1/DTD/svg11.dtd">
<svg xmlns="http://www.w3.org/2000/svg" version="1.1" width="500px" height="500px" style="shape-rendering:geometricPrecision; text-rendering:geometricPrecision; image-rendering:optimizeQuality; fill-rule:evenodd; clip-rule:evenodd" xmlns:xlink="http://www.w3.org/1999/xlink">
<g>
    <path style="opacity:1; stroke:#473C38; stroke-width:2" fill="#cfc2b9" d="M 351.5,150.5 C 361.749,149.912 368.249,154.579 371,164.5C 372.451,175.362 370.118,185.362 364,194.5C 359.245,201.676 354.245,208.676 349,215.5C 343.247,223.927 340.414,233.26 340.5,243.5C 342.829,256.819 345.162,270.152 347.5,283.5C 345.257,309.161 334.257,329.995 314.5,346C 307.306,350.017 299.639,351.35 291.5,350C 260.864,341.677 230.531,332.344 200.5,322C 190.06,319.712 179.726,317.046 169.5,314C 156.749,306.69 147.583,296.19 142,282.5C 142.123,245.078 156.29,213.911 184.5,189C 194.157,181.115 205.157,178.115 217.5,180C 237.356,186.244 257.023,185.577 276.5,178C 301.429,168.305 326.429,159.138 351.5,150.5 Z"/>
   
<g><path style="opacity:1" fill="#cfc2b9" d="M 351.5,150.5 C 361.749,149.912 368.249,154.579 371,164.5C 372.451,175.362 370.118,185.362 364,194.5C 359.245,201.676 354.245,208.676 349,215.5C 343.247,223.927 340.414,233.26 340.5,243.5C 342.829,256.819 345.162,270.152 347.5,283.5C 345.257,309.161 334.257,329.995 314.5,346C 307.306,350.017 299.639,351.35 291.5,350C 260.864,341.677 230.531,332.344 200.5,322C 190.06,319.712 179.726,317.046 169.5,314C 156.749,306.69 147.583,296.19 142,282.5C 142.123,245.078 156.29,213.911 184.5,189C 194.157,181.115 205.157,178.115 217.5,180C 237.356,186.244 257.023,185.577 276.5,178C 301.429,168.305 326.429,159.138 351.5,150.5 Z"/></g>
<g><path style="opacity:1" fill="#1b1713" d="M 259.5,219.5 C 261.966,218.366 264.633,218.199 267.5,219C 270.634,222.449 272.8,226.282 274,230.5C 269.406,226.46 264.573,222.794 259.5,219.5 Z"/></g>
<g><path style="opacity:1" fill="#1d1713" d="M 299.5,235.5 C 306.366,234.316 313.366,234.482 320.5,236C 322.418,237.77 322.918,239.937 322,242.5C 315.253,237.771 307.753,235.438 299.5,235.5 Z"/></g>
<g><path style="opacity:1" fill="#14110f" d="M 258.5,236.5 C 257.51,242.645 257.177,248.978 257.5,255.5C 257.5,263.167 257.5,270.833 257.5,278.5C 262.179,278.666 266.845,278.499 271.5,278C 275.423,276.537 279.423,275.37 283.5,274.5C 283.5,276.167 283.5,277.833 283.5,279.5C 272.167,279.5 260.833,279.5 249.5,279.5C 249.5,264.833 249.5,250.167 249.5,235.5C 260.5,235.5 271.5,235.5 282.5,235.5C 282.785,237.288 282.452,238.955 281.5,240.5C 274.228,237.041 266.561,235.708 258.5,236.5 Z"/></g>
<g><path style="opacity:1" fill="#191615" d="M 183.5,278.5 C 182.791,279.404 181.791,279.737 180.5,279.5C 170.268,277.769 164.101,271.769 162,261.5C 160.187,249.299 165.02,240.799 176.5,236C 185.203,234.026 193.869,234.193 202.5,236.5C 202.785,238.288 202.452,239.955 201.5,241.5C 194.919,236.028 187.586,234.528 179.5,237C 175.212,239.292 172.378,242.792 171,247.5C 169.968,255.331 170.635,262.998 173,270.5C 175.494,274.496 178.994,277.163 183.5,278.5 Z"/></g>
<g><path style="opacity:1" fill="#827872" d="M 258.5,236.5 C 258.5,242.167 258.5,247.833 258.5,253.5C 265.532,253.17 272.532,253.503 279.5,254.5C 272.197,255.497 264.863,255.831 257.5,255.5C 257.177,248.978 257.51,242.645 258.5,236.5 Z"/></g>
<g><path style="opacity:1" fill="#171513" d="M 311.5,279.5 C 310.833,279.5 310.5,279.167 310.5,278.5C 316.24,277.027 318.407,273.36 317,267.5C 315.5,266 314,264.5 312.5,263C 305.864,259.682 299.198,256.349 292.5,253C 285.397,246.388 286.064,240.722 294.5,236C 295.833,235.333 297.167,235.333 298.5,236C 292.3,239.135 291.966,242.801 297.5,247C 305.324,250.745 312.991,254.745 320.5,259C 327.077,264.922 327.077,270.922 320.5,277C 317.647,278.43 314.647,279.263 311.5,279.5 Z"/></g>
<g><path style="opacity:1" fill="#171413" d="M 221.5,259.5 C 221.5,259.167 221.5,258.833 221.5,258.5C 231.888,258.093 235.721,252.76 233,242.5C 231.833,240 230,238.167 227.5,237C 224.183,236.502 220.85,236.335 217.5,236.5C 216.167,244.833 216.167,253.167 217.5,261.5C 217.5,267.5 217.5,273.5 217.5,279.5C 214.5,279.5 211.5,279.5 208.5,279.5C 208.5,264.833 208.5,250.167 208.5,235.5C 216.84,235.334 225.173,235.5 233.5,236C 242.002,239.903 243.835,246.07 239,254.5C 236.749,256.377 234.249,257.877 231.5,259C 232.931,259.465 234.097,260.299 235,261.5C 237.833,267.167 240.667,272.833 243.5,278.5C 240.5,279.833 237.5,279.833 234.5,278.5C 231.667,272.833 228.833,267.167 226,261.5C 224.89,259.963 223.39,259.297 221.5,259.5 Z"/></g>
<g><path style="opacity:1" fill="#49413d" d="M 217.5,236.5 C 217.334,244.507 217.5,252.507 218,260.5C 219.113,259.695 220.279,259.028 221.5,258.5C 221.5,258.833 221.5,259.167 221.5,259.5C 220.486,260.674 219.153,261.34 217.5,261.5C 216.167,253.167 216.167,244.833 217.5,236.5 Z"/></g>
<g><path style="opacity:1" fill="#cec1b9" d="M 217.5,236.5 C 220.85,236.335 224.183,236.502 227.5,237C 230,238.167 231.833,240 233,242.5C 235.721,252.76 231.888,258.093 221.5,258.5C 220.279,259.028 219.113,259.695 218,260.5C 217.5,252.507 217.334,244.507 217.5,236.5 Z"/></g>
<g><path style="opacity:1" fill="#141110" d="M 193.5,279.5 C 192.833,279.5 192.5,279.167 192.5,278.5C 193.5,278.5 194.5,278.5 195.5,278.5C 195.5,271.167 195.5,263.833 195.5,256.5C 198.167,256.5 200.833,256.5 203.5,256.5C 203.5,263.5 203.5,270.5 203.5,277.5C 200.167,278.167 196.833,278.833 193.5,279.5 Z"/></g>
<g><path style="opacity:1" fill="#1d1815" d="M 302.5,278.5 C 301.791,279.404 300.791,279.737 299.5,279.5C 295.5,278.833 291.5,278.167 287.5,277.5C 287.201,275.396 287.534,273.396 288.5,271.5C 292.631,274.899 297.298,277.232 302.5,278.5 Z"/></g>
<g><path style="opacity:1" fill="#655a52" d="M 183.5,278.5 C 186.5,278.5 189.5,278.5 192.5,278.5C 192.5,279.167 192.833,279.5 193.5,279.5C 189.167,280.833 184.833,280.833 180.5,279.5C 181.791,279.737 182.791,279.404 183.5,278.5 Z"/></g>
<g><path style="opacity:1" fill="#574b44" d="M 302.5,278.5 C 305.167,278.5 307.833,278.5 310.5,278.5C 310.5,279.167 310.833,279.5 311.5,279.5C 307.5,280.833 303.5,280.833 299.5,279.5C 300.791,279.737 301.791,279.404 302.5,278.5 Z"/></g>
<g><path style="opacity:1" fill="#221d1a" d="M 231.5,291.5 C 233.924,291.192 236.257,291.526 238.5,292.5C 237.311,293.429 235.978,293.762 234.5,293.5C 234.5,294.5 234.5,295.5 234.5,296.5C 238.5,297.167 238.5,297.833 234.5,298.5C 234.5,299.833 234.5,301.167 234.5,302.5C 235.978,302.238 237.311,302.571 238.5,303.5C 236.257,304.474 233.924,304.808 231.5,304.5C 231.5,300.167 231.5,295.833 231.5,291.5 Z"/></g>
<g><path style="opacity:1" fill="#160f0b" d="M 279.5,291.5 C 282.247,291.187 284.914,291.52 287.5,292.5C 286.675,293.386 285.675,293.719 284.5,293.5C 283.833,308.167 283.167,308.167 282.5,293.5C 280.821,293.715 279.821,293.048 279.5,291.5 Z"/></g>
<g><path style="opacity:1" fill="#18120c" d="M 290.5,291.5 C 292.25,294.355 293.083,297.689 293,301.5C 294.333,302.833 295.667,302.833 297,301.5C 297.176,298.118 297.676,294.785 298.5,291.5C 299.659,295.122 299.825,298.789 299,302.5C 296.333,305.167 293.667,305.167 291,302.5C 290.501,298.848 290.335,295.182 290.5,291.5 Z"/></g>
<g><path style="opacity:1" fill="#251e1b" d="M 185.5,291.5 C 192.107,289.749 194.607,292.082 193,298.5C 191.644,299.38 190.144,299.714 188.5,299.5C 188.5,301.167 188.5,302.833 188.5,304.5C 187.5,304.5 186.5,304.5 185.5,304.5C 185.5,300.167 185.5,295.833 185.5,291.5 Z"/></g>
<g><path style="opacity:1" fill="#bab5b3" d="M 188.5,293.5 C 191.861,294.203 192.194,295.537 189.5,297.5C 188.571,296.311 188.238,294.978 188.5,293.5 Z"/></g>
<g><path style="opacity:1" fill="#15100b" d="M 220.5,291.5 C 223.247,291.187 225.914,291.52 228.5,292.5C 227.675,293.386 226.675,293.719 225.5,293.5C 224.833,308.167 224.167,308.167 223.5,293.5C 221.821,293.715 220.821,293.048 220.5,291.5 Z"/></g>
<g><path style="opacity:1" fill="#170f0a" d="M 210.5,291.5 C 213.247,291.187 215.914,291.52 218.5,292.5C 217.675,293.386 216.675,293.719 215.5,293.5C 214.833,308.167 214.167,308.167 213.5,293.5C 211.821,293.715 210.821,293.048 210.5,291.5 Z"/></g>
<g><path style="opacity:1" fill="#251e1b" d="M 241.5,291.5 C 248.621,289.783 250.954,292.283 248.5,299C 250.582,306.033 249.415,306.2 245,299.5C 244.506,301.134 244.34,302.801 244.5,304.5C 243.5,304.5 242.5,304.5 241.5,304.5C 241.5,300.167 241.5,295.833 241.5,291.5 Z"/></g>
<g><path style="opacity:1" fill="#b1adaa" d="M 244.5,293.5 C 247.861,294.203 248.194,295.537 245.5,297.5C 244.571,296.311 244.238,294.978 244.5,293.5 Z"/></g>
<g><path style="opacity:1" fill="#231b17" d="M 270.5,291.5 C 272.604,291.201 274.604,291.534 276.5,292.5C 275.311,293.429 273.978,293.762 272.5,293.5C 273.515,296.173 274.848,298.673 276.5,301C 275.263,304.043 272.93,305.21 269.5,304.5C 269.089,301.724 269.922,301.057 272,302.5C 273.059,302.37 273.892,301.87 274.5,301C 273.271,299.471 271.771,298.304 270,297.5C 269.322,295.402 269.489,293.402 270.5,291.5 Z"/></g>
<g><path style="opacity:1" fill="#160f09" d="M 316.5,291.5 C 317.8,293.223 318.467,295.39 318.5,298C 318.167,300.167 317.833,302.333 317.5,304.5C 316.508,300.217 316.174,295.884 316.5,291.5 Z"/></g>
<g><path style="opacity:1" fill="#1f1b17" d="M 252.5,292.5 C 253.386,291.224 254.386,291.224 255.5,292.5C 256.728,297.522 258.061,297.355 259.5,292C 260.332,291.312 260.998,291.479 261.5,292.5C 259.31,296.21 258.31,300.21 258.5,304.5C 257.5,304.5 256.5,304.5 255.5,304.5C 255.966,300.018 254.966,296.018 252.5,292.5 Z"/></g>
<g><path style="opacity:1" fill="#18120e" d="M 303.5,291.5 C 312.351,291.368 314.684,295.202 310.5,303C 308.323,304.202 305.989,304.702 303.5,304.5C 303.5,300.167 303.5,295.833 303.5,291.5 Z"/></g>
<g><path style="opacity:1" fill="#bfb8b2" d="M 308.5,294.5 C 309.947,295.134 310.613,296.301 310.5,298C 310.613,299.699 309.947,300.866 308.5,301.5C 307.275,300.848 306.608,299.681 306.5,298C 306.608,296.319 307.275,295.152 308.5,294.5 Z"/></g>
<g><path style="opacity:1" fill="#736d69" d="M 308.5,294.5 C 307.275,295.152 306.608,296.319 306.5,298C 306.608,299.681 307.275,300.848 308.5,301.5C 307.791,302.404 306.791,302.737 305.5,302.5C 305.5,299.5 305.5,296.5 305.5,293.5C 306.791,293.263 307.791,293.596 308.5,294.5 Z"/></g>
<g><path style="opacity:1" fill="#231c18" d="M 199.5,291.5 C 207.003,290.853 209.503,294.186 207,301.5C 204.339,304.966 201.339,305.299 198,302.5C 197.013,298.525 197.513,294.859 199.5,291.5 Z"/></g>
<g><path style="opacity:1" fill="#bfb8b5" d="M 200.5,293.5 C 201.822,293.33 202.989,293.663 204,294.5C 204.667,296.833 204.667,299.167 204,301.5C 200.966,302.748 199.466,301.581 199.5,298C 199.773,296.467 200.106,294.967 200.5,293.5 Z"/></g>
<g><path style="opacity:1" fill="#221d18" d="M 325.5,291.5 C 331.82,291.32 334.32,294.32 333,300.5C 330.127,305.408 326.794,305.741 323,301.5C 321.863,297.537 322.697,294.204 325.5,291.5 Z"/></g>
<g><path style="opacity:1" fill="#c0b7b4" d="M 326.5,293.5 C 327.822,293.33 328.989,293.663 330,294.5C 330.667,296.833 330.667,299.167 330,301.5C 328.667,302.833 327.333,302.833 326,301.5C 325.278,298.739 325.445,296.073 326.5,293.5 Z"/></g>
</g>
</svg>
